:FULLY-SPECIFIED
:FORCE-ALL-JOINTS-BE-3DOF
:DEGREES
306
root 9.09874 15.4245 -23.8018 13.3887 59.978 17.2031
lfemur -16.306 18.3161 -18.3301
ltibia 52.4398 -0 0
lfoot -17.876 -25.9708 -0.074372
ltoes 57.6654 -0 0
rfemur -53.17 -18.5711 34.7962
rtibia 57.1781 -0 0
rfoot 11.1778 11.9292 0.537716
rtoes 1.83476 -0 0
lowerback 9.24109 -3.33639 -8.27746
upperback 4.918 -4.93538 -4.02996
thorax 0.326135 -2.49509 0.83769
lowerneck -5.12987 -10.6371 -2.95647
upperneck -1.93944 -14.0974 10.4738
head 1.32864 -6.93622 3.39206
lclavicle 5.08889e-014 0 0
lhumerus -42.5055 -42.5725 99.9629
lradius 59.2786 -0 0
lwrist 20.4558 0 0
lhand 15.4434 12.2541 0.0309197
lfingers 7.12502 -0 0
lthumb 40.2653 37.37 0.0189807
rclavicle 5.08889e-014 0 0
rhumerus -40.3193 63.9548 -75.8733
rradius 79.1164 -0 0
rwrist 4.27686 0 0
rhand 2.49285 -5.28133 0.347625
rfingers 7.12502 -0 0
rthumb 27.9125 -32.4848 0.537454
307
root 9.05218 15.4441 -23.782 12.7802 58.4385 16.1985
lfemur -16.46 18.8469 -18.1944
ltibia 52.0791 -0 0
lfoot -18.3207 -25.1727 -0.0557719
ltoes 57.6489 -0 0
rfemur -54.7276 -19.8323 35.8154
rtibia 57.8633 -0 0
rfoot 12.0865 14.7431 0.402747
rtoes -3.51439 0 0
lowerback 9.46353 -3.20714 -8.2716
upperback 4.96096 -4.78543 -4.04345
thorax 0.235871 -2.41801 0.826176
lowerneck -5.30891 -10.4971 -2.62779
upperneck -2.43174 -13.8858 10.6097
head 1.16671 -6.83746 3.39778
lclavicle 5.08889e-014 0 0
lhumerus -42.7673 -43.0563 100.05
lradius 59.0883 -0 0
lwrist 20.3561 0 0
lhand 15.0327 11.8947 0.0231887
lfingers 7.12502 -0 0
lthumb 39.8798 37.135 0.0142351
rclavicle 5.08889e-014 0 0
rhumerus -33.2595 65.4449 -69.0759
rradius 79.3209 -0 0
rwrist 2.82595 0 0
rhand 5.47529 -4.72717 0.260352
rfingers 7.12502 -0 0
rthumb 30.7737 -31.5916 0.402535
308
root 9.00562 15.4637 -23.7621 12.2465 56.8938 15.2658
lfemur -16.6131 19.378 -18.0598
ltibia 51.7185 -0 0
lfoot -18.7652 -24.3748 -0.0309791
ltoes 57.6325 -0 0
rfemur -56.3217 -21.0665 36.8792
rtibia 58.5485 -0 0
rfoot 12.9875 17.5546 0.223349
rtoes -8.86355 0 0
lowerback 9.68595 -3.07791 -8.26523
upperback 5.00388 -4.63546 -4.05683
thorax 0.145596 -2.34095 0.814541
lowerneck -5.48704 -10.3562 -2.29971
upperneck -2.92308 -13.6731 10.7435
head 1.00483 -6.73869 3.40321
lclavicle 5.08889e-014 0 0
lhumerus -43.0322 -43.5399 100.142
lradius 58.898 -0 0
lwrist 20.2564 0 0
lhand 14.622 11.5354 0.0128818
lfingers 7.12502 -0 0
lthumb 39.4943 36.9 0.00790807
rclavicle 5.08889e-014 0 0
rhumerus -25.443 66.5464 -61.5204
rradius 79.5255 -0 0
rwrist 1.37505 0 0
rhand 8.45672 -4.1783 0.144368
rfingers 7.12502 -0 0
rthumb 33.6324 -30.7063 0.223221
309
root 8.95906 15.4833 -23.7423 11.7781 55.3449 14.3951
lfemur -16.7654 19.9095 -17.9263
ltibia 51.3578 0 0
lfoot -19.2093 -23.5771 0
ltoes 57.616 0 0
rfemur -57.9538 -22.2722 37.9888
rtibia 59.2337 0 0
rfoot 13.8786 20.3628 0
rtoes -14.2127 0 0
lowerback 9.90836 -2.94871 -8.25837
upperback 5.04675 -4.48549 -4.0701
thorax 0.0553108 -2.26391 0.802785
lowerneck -5.66427 -10.2142 -1.97222
upperneck -3.41346 -13.4593 10.8753
head 0.842986 -6.6399 3.40836
lclavicle 5.08889e-014 0 0
lhumerus -43.3004 -44.0231 100.237
lradius 58.7077 0 0
lwrist 20.1567 0 0
lhand 14.2114 11.1762 0
lfingers 7.12502 0 0
lthumb 39.1088 36.665 0
rclavicle 5.08889e-014 0 0
rhumerus -17.0391 67.2029 -53.3766
rradius 79.73 0 0
rwrist -0.0758576 0 0
rhand 11.4369 -3.63621 0
rfingers 7.12502 0 0
rthumb 36.4879 -749.831 0
310
root 8.93241 15.5031 -23.6899 11.5783 54.4957 13.9565
lfemur -16.5001 19.9159 -17.6781
ltibia 50.6933 -0 0
lfoot -19.2997 -23.0649 -0.00404415
ltoes 57.8412 -0 0
rfemur -57.8475 -21.7358 36.1012
rtibia 59.2441 -0 0
rfoot 13.1961 18.6665 0.101899
rtoes -12.9103 0 0
lowerback 9.87652 -2.7513 -7.97447
upperback 5.00454 -4.20468 -4.01095
thorax 0.000753059 -2.11981 0.682521
lowerneck -5.5028 -10.3693 -1.59838
upperneck -3.73272 -13.6547 10.7191
head 0.682767 -6.75952 3.31643
lclavicle -7.07673e-014 1.55052e-014 0
lhumerus -43.8251 -45.053 101.103
lradius 58.7796 -0 0
lwrist 20.016 0 0
lhand 14.2907 11.1552 -0.000145371
lfingers 7.12502 -0 0
lthumb 39.1835 36.622 -0.000280182
rclavicle -7.07673e-014 1.55052e-014 0
rhumerus -15.6191 61.4877 -53.4509
rradius 79.2546 -0 0
rwrist -2.62057 0 0
rhand 7.00379 -5.72898 0.864851
rfingers 7.12502 -0 0
rthumb 32.2414 -32.2357 0.9518
311
root 8.90577 15.5228 -23.6374 11.3936 53.6457 13.5317
lfemur -16.2348 19.9212 -17.4298
ltibia 50.0287 -0 0
lfoot -19.3902 -22.5527 -0.00727986
ltoes 58.0663 -0 0
rfemur -57.7606 -21.1964 34.2215
rtibia 59.2546 -0 0
rfoot 12.5109 16.9692 0.183543
rtoes -11.608 0 0
lowerback 9.84567 -2.55374 -7.69073
upperback 4.96263 -3.92383 -3.95202
thorax -0.0541023 -1.97583 0.56213
lowerneck -5.34228 -10.5255 -1.2248
upperneck -4.05171 -13.8509 10.5639
head 0.522702 -6.87939 3.22481
lclavicle -7.07673e-014 1.55052e-014 0
lhumerus -44.3818 -46.077 101.999
lradius 58.8515 -0 0
lwrist 19.8752 0 0
lhand 14.37 11.1342 -0.000261669
lfingers 7.12502 -0 0
lthumb 39.2582 36.579 -0.000504328
rclavicle -7.07673e-014 1.55052e-014 0
rhumerus -14.4008 55.7747 -53.7654
rradius 78.7793 -0 0
rwrist -5.16528 0 0
rhand 2.54081 -7.88295 1.56478
rfingers 7.12502 -0 0
rthumb 27.9573 -34.7051 1.7221
312
root 8.87912 15.5426 -23.585 11.2229 52.7949 13.1198
lfemur -15.9695 19.9255 -17.1815
ltibia 49.3642 -0 0
lfoot -19.4806 -22.0405 -0.00970688
ltoes 58.2915 -0 0
rfemur -57.693 -20.6547 32.3496
rtibia 59.265 -0 0
rfoot 11.8235 15.271 0.24485
rtoes -10.3056 0 0
lowerback 9.81581 -2.35602 -7.40714
upperback 4.92103 -3.64294 -3.89332
thorax -0.109256 -1.83196 0.441612
lowerneck -5.18271 -10.6827 -0.851474
upperneck -4.37041 -14.0479 10.4097
head 0.36279 -6.99952 3.13351
lclavicle -7.07673e-014 1.55052e-014 0
lhumerus -44.9726 -47.0947 102.926
lradius 58.9233 -0 0
lwrist 19.7345 0 0
lhand 14.4493 11.1132 -0.000348892
lfingers 7.12502 -0 0
lthumb 39.3328 36.536 -0.000672438
rclavicle -7.07673e-014 1.55052e-014 0
rhumerus -13.2846 50.0662 -54.2298
rradius 78.3039 -0 0
rwrist -7.71 0 0
rhand -1.94683 -10.0856 2.09452
rfingers 7.12502 -0 0
rthumb 23.6423 -37.2263 2.30512
313
root 8.85247 15.5623 -23.5325 11.0654 51.9433 12.72
lfemur -15.7041 19.9287 -16.9332
ltibia 48.6997 -0 0
lfoot -19.5711 -21.5283 -0.011325
ltoes 58.5167 -0 0
rfemur -57.6445 -20.1112 30.4848
rtibia 59.2755 -0 0
rfoot 11.1346 13.5721 0.285756
rtoes -9.00322 0 0
lowerback 9.78692 -2.15817 -7.12368
upperback 4.87973 -3.36201 -3.83484
thorax -0.164707 -1.68821 0.320964
lowerneck -5.02411 -10.8409 -0.4784
upperneck -4.68885 -14.2458 10.2565
head 0.203029 -7.1199 3.04252
lclavicle -7.07673e-014 1.55052e-014 0
lhumerus -45.5995 -48.1056 103.887
lradius 58.9952 -0 0
lwrist 19.5937 0 0
lhand 14.5286 11.0922 -0.000407041
lfingers 7.12502 -0 0
lthumb 39.4075 36.493 -0.000784511
rclavicle -7.07673e-014 1.55052e-014 0
rhumerus -12.218 44.364 -54.8019
rradius 77.8285 -0 0
rwrist -10.2547 0 0
rhand -6.45289 -12.3236 2.45001
rfingers 7.12502 -0 0
rthumb 19.3041 -39.7851 2.69636
314
root 8.82582 15.5821 -23.4801 10.9203 51.0912 12.3312
lfemur -15.4387 19.9308 -16.6849
ltibia 48.0352 -0 0
lfoot -19.6616 -21.0161 -0.0121341
ltoes 58.7418 -0 0
rfemur -57.615 -19.5666 28.627
rtibia 59.2859 -0 0
rfoot 10.4448 11.8729 0.30622
rtoes -7.70084 0 0
lowerback 9.75902 -1.96017 -6.84037
upperback 4.83872 -3.08103 -3.77658
thorax -0.220458 -1.54458 0.200186
lowerneck -4.86648 -11.0001 -0.105574
upperneck -5.00701 -14.4445 10.1043
head 0.0434183 -7.24053 2.95185
lclavicle -7.07673e-014 1.55052e-014 0
lhumerus -46.2648 -49.1091 104.884
lradius 59.0671 -0 0
lwrist 19.453 0 0
lhand 14.6079 11.0712 -0.000436115
lfingers 7.12502 -0 0
lthumb 39.4822 36.45 -0.000840548
rclavicle -7.07673e-014 1.55052e-014 0
rhumerus -11.1685 38.67 -55.4614
rradius 77.3532 -0 0
rwrist -12.7994 0 0
rhand -10.9703 -14.5832 2.62845
rfingers 7.12502 -0 0
rthumb 14.9517 -42.3668 2.89276
315
root 8.79918 15.6018 -23.4276 10.7869 50.2385 11.9528
lfemur -15.1734 19.9318 -16.4365
ltibia 47.3706 -0 0
lfoot -19.7522 -20.504 -0.0121341
ltoes 58.967 -0 0
rfemur -57.6042 -19.0213 26.7756
rtibia 59.2964 -0 0
rfoot 9.75476 10.1736 0.30622
rtoes -6.39847 0 0
lowerback 9.73211 -1.76203 -6.55718
upperback 4.79802 -2.80001 -3.71854
thorax -0.276507 -1.40107 0.0792757
lowerneck -4.70982 -11.1603 0.267007
upperneck -5.32492 -14.644 9.95305
head -0.116043 -7.36141 2.86149
lclavicle -7.07673e-014 1.55052e-014 0
lhumerus -46.971 -50.1046 105.92
lradius 59.139 -0 0
lwrist 19.3122 0 0
lhand 14.6871 11.0501 -0.000436115
lfingers 7.12502 -0 0
lthumb 39.5569 36.4071 -0.000840548
rclavicle -7.07673e-014 1.55052e-014 0
rhumerus -10.1139 32.986 -56.1993
rradius 76.8778 -0 0
rwrist -15.3441 0 0
rhand -15.4916 -16.8499 2.62845
rfingers 7.12502 -0 0
rthumb 10.5946 -44.9562 2.89276
316
root 8.77253 15.6216 -23.3752 10.6644 49.3852 11.5841
lfemur -14.908 19.9317 -16.1882
ltibia 46.7061 -0 0
lfoot -19.8427 -19.9918 -0.011325
ltoes 59.1921 -0 0
rfemur -57.6121 -18.476 24.9303
rtibia 59.3068 -0 0
rfoot 9.06497 8.47438 0.285756
rtoes -5.0961 0 0
lowerback 9.70617 -1.56377 -6.27411
upperback 4.7576 -2.51896 -3.66071
thorax -0.332857 -1.25767 -0.0417678
lowerneck -4.55414 -11.3215 0.639348
upperneck -5.64258 -14.8443 9.80286
head -0.275355 -7.48254 2.77145
lclavicle -7.07673e-014 1.55052e-014 0
lhumerus -47.7209 -51.0915 106.997
lradius 59.2109 -0 0
lwrist 19.1715 0 0
lhand 14.7664 11.0291 -0.000407041
lfingers 7.12502 -0 0
lthumb 39.6316 36.3641 -0.000784511
rclavicle -7.07673e-014 1.55052e-014 0
rhumerus -9.0361 27.3141 -57.0133
rradius 76.4025 -0 0
rwrist -17.8888 0 0
rhand -20.009 -19.1095 2.45001
rfingers 7.12502 -0 0
rthumb 6.24219 -47.5379 2.69636
